<svg width="28" height="28" viewBox="0 0 28 28" fill="none" xmlns="http://www.w3.org/2000/svg">
<path fill-rule="evenodd" clip-rule="evenodd" d="M17.7186 6.23706C16.3144 9.66734 15.2465 12.555 15.3456 12.6544C15.6996 13.0085 28 7.71803 28 7.21172C28 5.42086 22.5791 0 20.7883 0C20.5044 0 19.1229 2.80678 17.7186 6.23706ZM9.10312 1.60682C3.33523 3.59905 -0.446203 9.38427 0.0423634 15.4695C0.430658 20.3065 3.33317 24.5546 7.72202 26.7102C9.71136 27.6869 11.0026 28 14 28C16.9974 28 17.4038 27.6869 19.3931 26.7102C22.0947 25.3832 24.8408 22.5863 25.988 19.9933C27.4396 16.7119 27.4487 10.4761 26.0028 9.99415C25.624 9.86789 25.5745 10.1324 25.8155 10.9977C26.4542 13.2887 26.1456 17.4299 25.1759 19.5852C24.3684 21.3806 23.5426 22.7409 22.9016 22.9016C22.9016 22.9016 21.279 21.5363 18.43 18.6959L13.9702 14.2501V7.90454V1.55854L15.4438 1.83501C16.2542 1.98728 17.2078 2.22331 17.5631 2.35948C17.9939 2.52495 18.1457 2.41725 18.019 2.03721C17.5783 0.714281 12.4092 0.465046 9.10312 1.60682ZM25.9323 5.1514C27.0864 6.82879 27.1293 7.00952 26.4596 7.36233C25.7829 7.71885 19.4633 10.3721 17.391 11.1698C17.3213 11.1966 17.2558 11.2234 17.195 11.2482C16.9708 11.3399 16.8099 11.4057 16.7363 11.352C16.5493 11.2154 16.9256 10.3076 18.2574 7.0936C18.3996 6.75042 18.5528 6.38093 18.7172 5.98329C18.8939 5.55616 19.0554 5.16284 19.2039 4.80126C20.2723 2.19925 20.6656 1.24123 21.1932 1.1605C21.5007 1.11345 21.8537 1.36433 22.4125 1.7614C22.5455 1.85591 22.6901 1.95871 22.8486 2.06774C23.8534 2.75891 25.2411 4.14662 25.9323 5.1514ZM12.9386 7.84595V13.8235L6.85217 13.8738H0.673703C0.673703 13.8738 0.88484 9.14515 4.74537 5.36433C8.60589 1.5835 12.9386 1.55854 12.9386 1.55854V7.84595ZM22.2826 23.5205L17.8111 19.3149L13.3653 14.8551H7.0197H0.673703L0.958425 16.3715C1.44699 18.9753 2.50115 20.8887 3.0948 21.6636C3.68846 22.4386 6.52416 25.4684 9 26.5C17.4849 29.182 20.559 25.1205 21.9928 23.7855C22.1032 23.6827 22.1995 23.5931 22.2826 23.5205Z" fill="#4851FB"/>
</svg>
