<svg width="30" height="31" viewBox="0 0 30 31" fill="none" xmlns="http://www.w3.org/2000/svg">
<path fill-rule="evenodd" clip-rule="evenodd" d="M6.53488 4.00427V7.00855H3.76744H1V16.3462V25.6838H6.86047H12.7209V26.7958V27.9079L10.3198 28.0011C7.22951 28.121 6.53488 28.384 6.53488 29.4344C6.53488 30.2743 6.71249 30.2923 15 30.2923C23.2875 30.2923 23.4651 30.2743 23.4651 29.4344C23.4651 28.384 22.7705 28.121 19.6802 28.0011L17.2791 27.9079V26.7958V25.6838H23.1395H29V16.3462V7.00855H26.2326H23.4651V4.00427V1H15H6.53488V4.00427ZM22.4884 9.36325V17.0769H23.3945C24.6245 17.0769 24.8873 16.9054 25.0212 16.0145C25.1539 15.1315 24.8602 14.7035 24.0126 14.5449L23.4651 14.4424V11.5375V8.63248H25.5016H27.5381L27.4958 15.9808L27.4535 23.3291H15H2.54651L2.50419 15.9808L2.46186 8.63248H4.49837H6.53488V11.4541V14.2756L6.05156 14.3721C5.78572 14.425 5.41081 14.6256 5.21823 14.8177C4.92277 15.1125 4.88402 15.2848 4.96998 15.9191C5.09874 16.8692 5.38509 17.0769 6.56598 17.0769H7.51163V9.36325V1.64957H15H22.4884V9.36325ZM14.0744 5.86368C13.4309 6.25504 13.2093 6.65372 13.2093 7.42005C13.2093 8.2338 14.0711 9.11998 14.8616 9.11901C16.2165 9.11755 17.1091 7.80817 16.5527 6.63845C16.2774 6.06001 15.4967 5.54636 14.894 5.54766C14.7285 5.54798 14.3596 5.69024 14.0744 5.86368ZM13.4742 11.4692C11.8645 12.0416 10.6851 13.7979 10.4992 15.8996L10.3951 17.0769H14.998H19.601L19.5236 15.8996C19.3092 12.6374 16.3284 10.4544 13.4742 11.4692Z" stroke="#A2A4D0"/>
</svg>
